<?xml version="1.0" encoding="UTF-8"?>
<svg xmlns="http://www.w3.org/2000/svg" xmlns:xlink="http://www.w3.org/1999/xlink" width="3750" height="3750" viewBox="0 0 3750 3750">
<rect x="-375" y="-375" width="4500" height="4500" fill="rgb(100%, 100%, 100%)" fill-opacity="1"/>
<path fill-rule="evenodd" fill="rgb(74.021912%, 74.021912%, 74.021912%)" fill-opacity="1" d="M 3596.300781 2453.761719 C 3596.300781 2467.488281 3415.21875 2480.660156 3092.839844 2490.378906 C 2770.449219 2500.101562 2333.140625 2505.558594 1876.960938 2505.578125 C 1420.789062 2505.589844 983.054688 2500.160156 659.9375 2490.460938 C 336.820312 2480.769531 154.742188 2467.609375 153.703125 2453.871094 C 152.664062 2440.140625 332.75 2426.960938 654.394531 2417.210938 C 976.039062 2407.480469 1412.941406 2401.980469 1869.121094 2401.929688 C 2325.289062 2401.890625 2763.429688 2407.289062 3087.28125 2416.960938 C 3411.128906 2426.640625 3594.199219 2439.78125 3596.28125 2453.519531 "/>
<path fill-rule="nonzero" fill="rgb(5.883789%, 42.358398%, 80.076599%)" fill-opacity="1" d="M 187.765625 2333.371094 L 3562.109375 2333.371094 L 3562.109375 1639.871094 C 3489.070312 1375.738281 3303.878906 1253.671875 3023.871094 1251.710938 L 367.082031 1251.710938 C 265.570312 1266.71875 174.867188 1262.25 187.765625 1697.53125 Z M 187.765625 2333.371094 "/>
<path fill-rule="nonzero" fill="rgb(19.604492%, 19.604492%, 19.604492%)" fill-opacity="1" d="M 2934.589844 1344.871094 C 2934.589844 1344.871094 3119.828125 1647.460938 3118.949219 1650.75 C 3118.070312 1654.03125 3511.640625 1650.75 3511.640625 1650.75 C 3462.179688 1440.609375 3270.410156 1334.210938 2934.589844 1344.871094 Z M 2934.589844 1344.871094 "/>
<path fill-rule="nonzero" fill="rgb(19.604492%, 19.604492%, 19.604492%)" fill-opacity="1" d="M 3133.410156 1693.871094 L 3556.078125 1698.449219 L 3560.660156 2056.171875 L 3245.019531 2056.171875 C 3249.941406 1902.550781 3204.410156 1790.230469 3133.410156 1693.871094 Z M 3133.410156 1693.871094 "/>
<path fill-rule="nonzero" fill="rgb(100%, 96.09375%, 0%)" fill-opacity="1" d="M 367.082031 1251.710938 C 265.570312 1266.71875 174.867188 1262.25 187.765625 1697.53125 L 187.765625 2089.109375 L 1878.179688 2089.109375 L 2361.648438 1251.710938 Z M 367.082031 1251.710938 "/>
<path fill-rule="nonzero" fill="rgb(5.883789%, 42.358398%, 80.076599%)" fill-opacity="1" d="M 367.082031 1251.710938 C 265.570312 1266.71875 174.867188 1262.25 187.765625 1697.53125 L 187.765625 1972.660156 L 1722.929688 1972.660156 L 2139.160156 1251.710938 Z M 367.082031 1251.710938 "/>
<path fill-rule="nonzero" fill="rgb(19.604492%, 19.604492%, 19.604492%)" fill-opacity="1" d="M 337.519531 1342.558594 L 2884.558594 1342.558594 L 3063.160156 1651.921875 L 253.199219 1651.921875 C 257.582031 1533.96875 229.433594 1395.691406 337.519531 1342.558594 Z M 337.519531 1342.558594 "/>
<path fill-rule="nonzero" fill="rgb(100%, 70.117188%, 0%)" fill-opacity="1" d="M 3561.109375 2108.769531 L 3523.609375 2108.769531 C 3523.609375 2108.769531 3521.320312 2175.109375 3530.921875 2196.609375 C 3540.53125 2218.109375 3557.460938 2232.738281 3562.03125 2232.738281 C 3566.609375 2232.738281 3569.351562 2182.878906 3570.261719 2151.769531 C 3571.179688 2120.671875 3561.109375 2108.769531 3561.109375 2108.769531 Z M 3561.109375 2108.769531 "/>
<path fill-rule="nonzero" fill="rgb(100%, 97.264099%, 0%)" fill-opacity="1" d="M 3557.96875 2115.839844 L 3528.128906 2115.839844 C 3528.128906 2115.839844 3526.308594 2168.601562 3533.949219 2185.699219 C 3541.589844 2202.800781 3555.058594 2214.441406 3558.691406 2214.441406 C 3562.328125 2214.441406 3564.519531 2174.78125 3565.238281 2150.039062 C 3565.96875 2125.300781 3557.96875 2115.839844 3557.96875 2115.839844 Z M 3557.96875 2115.839844 "/>
<path fill-rule="nonzero" fill="rgb(71.289062%, 8.616638%, 0%)" fill-opacity="1" d="M 188.886719 2108.769531 L 226.394531 2108.769531 C 226.394531 2108.769531 228.683594 2175.109375 219.078125 2196.609375 C 209.46875 2218.109375 192.542969 2232.738281 187.96875 2232.738281 C 183.394531 2232.738281 180.652344 2182.878906 179.738281 2151.769531 C 178.820312 2120.671875 188.886719 2108.769531 188.886719 2108.769531 Z M 188.886719 2108.769531 "/>
<path fill-rule="nonzero" fill="rgb(100%, 21.166992%, 0%)" fill-opacity="1" d="M 192.035156 2115.839844 L 221.871094 2115.839844 C 221.871094 2115.839844 223.6875 2168.601562 216.046875 2185.699219 C 208.40625 2202.800781 194.945312 2214.441406 191.304688 2214.441406 C 187.667969 2214.441406 185.484375 2174.78125 184.757812 2150.039062 C 184.027344 2125.300781 192.035156 2115.839844 192.035156 2115.839844 Z M 192.035156 2115.839844 "/>
<path fill-rule="evenodd" fill="rgb(1.960754%, 11.767578%, 22.363281%)" fill-opacity="1" d="M 2720.511719 2125.519531 C 2624.210938 2125.519531 2546.679688 2168.5 2546.679688 2221.878906 L 2546.679688 2333.371094 L 2894.328125 2333.371094 L 2894.328125 2221.878906 C 2894.328125 2168.5 2816.808594 2125.519531 2720.511719 2125.519531 Z M 2720.511719 2125.519531 "/>
<path fill-rule="evenodd" fill="rgb(2.352905%, 2.352905%, 2.352905%)" fill-opacity="1" d="M 2876.949219 2308.679688 C 2876.949219 2395.011719 2807.019531 2465.019531 2720.679688 2465.121094 C 2634.351562 2465.21875 2564.261719 2395.371094 2564.058594 2309.03125 C 2563.859375 2222.699219 2633.640625 2152.53125 2719.96875 2152.230469 C 2806.308594 2151.941406 2876.558594 2221.628906 2876.949219 2307.960938 "/>
<path fill-rule="evenodd" fill="rgb(30.589294%, 30.589294%, 30.589294%)" fill-opacity="1" d="M 2822.058594 2308.679688 C 2822.058594 2364.71875 2776.660156 2410.171875 2720.621094 2410.230469 C 2664.578125 2410.289062 2619.078125 2364.949219 2618.949219 2308.910156 C 2618.820312 2252.871094 2664.121094 2207.320312 2720.160156 2207.121094 C 2776.199219 2206.929688 2821.800781 2252.179688 2822.058594 2308.210938 "/>
<path fill-rule="evenodd" fill="rgb(53.709412%, 53.709412%, 53.709412%)" fill-opacity="1" d="M 2781.808594 2308.679688 C 2781.808594 2342.5 2754.398438 2369.941406 2720.570312 2369.980469 C 2686.75 2370.019531 2659.289062 2342.640625 2659.210938 2308.820312 C 2659.128906 2274.988281 2686.46875 2247.5 2720.300781 2247.378906 C 2754.121094 2247.269531 2781.648438 2274.570312 2781.808594 2308.398438 "/>
<path fill-rule="evenodd" fill="rgb(1.960754%, 11.767578%, 22.363281%)" fill-opacity="1" d="M 1170.921875 2125.519531 C 1074.621094 2125.519531 997.09375 2168.5 997.09375 2221.878906 L 997.09375 2333.371094 L 1344.75 2333.371094 L 1344.75 2221.878906 C 1344.75 2168.5 1267.21875 2125.519531 1170.921875 2125.519531 Z M 1170.921875 2125.519531 "/>
<path fill-rule="evenodd" fill="rgb(2.352905%, 2.352905%, 2.352905%)" fill-opacity="1" d="M 1327.371094 2308.679688 C 1327.371094 2395.011719 1257.429688 2465.019531 1171.101562 2465.121094 C 1084.769531 2465.21875 1014.671875 2395.371094 1014.480469 2309.03125 C 1014.28125 2222.699219 1084.058594 2152.53125 1170.390625 2152.230469 C 1256.71875 2151.941406 1326.96875 2221.628906 1327.371094 2307.960938 "/>
<path fill-rule="evenodd" fill="rgb(30.589294%, 30.589294%, 30.589294%)" fill-opacity="1" d="M 1272.46875 2308.679688 C 1272.46875 2364.71875 1227.078125 2410.171875 1171.039062 2410.230469 C 1115 2410.289062 1069.5 2364.949219 1069.371094 2308.910156 C 1069.238281 2252.871094 1114.539062 2207.320312 1170.570312 2207.121094 C 1226.609375 2206.929688 1272.21875 2252.179688 1272.46875 2308.210938 "/>
<path fill-rule="evenodd" fill="rgb(53.709412%, 53.709412%, 53.709412%)" fill-opacity="1" d="M 1232.21875 2308.679688 C 1232.21875 2342.5 1204.820312 2369.941406 1170.988281 2369.980469 C 1137.160156 2370.019531 1109.699219 2342.640625 1109.628906 2308.820312 C 1109.550781 2274.988281 1136.890625 2247.5 1170.710938 2247.378906 C 1204.539062 2247.269531 1232.070312 2274.570312 1232.21875 2308.398438 "/>
<path fill-rule="evenodd" fill="rgb(1.960754%, 11.767578%, 22.363281%)" fill-opacity="1" d="M 665.90625 2125.519531 C 569.605469 2125.519531 492.078125 2168.5 492.078125 2221.878906 L 492.078125 2333.371094 L 839.734375 2333.371094 L 839.734375 2221.878906 C 839.734375 2168.5 762.207031 2125.519531 665.90625 2125.519531 Z M 665.90625 2125.519531 "/>
<path fill-rule="evenodd" fill="rgb(2.352905%, 2.352905%, 2.352905%)" fill-opacity="1" d="M 822.351562 2308.679688 C 822.351562 2395.011719 752.417969 2465.019531 666.082031 2465.121094 C 579.75 2465.21875 509.65625 2395.371094 509.460938 2309.03125 C 509.261719 2222.699219 579.039062 2152.53125 665.371094 2152.230469 C 751.703125 2151.941406 821.957031 2221.628906 822.351562 2307.960938 "/>
<path fill-rule="evenodd" fill="rgb(30.589294%, 30.589294%, 30.589294%)" fill-opacity="1" d="M 767.457031 2308.679688 C 767.457031 2364.71875 722.0625 2410.171875 666.019531 2410.230469 C 609.980469 2410.289062 564.480469 2364.949219 564.351562 2308.910156 C 564.226562 2252.871094 609.515625 2207.320312 665.558594 2207.121094 C 721.597656 2206.929688 767.203125 2252.179688 767.457031 2308.210938 "/>
<path fill-rule="evenodd" fill="rgb(53.709412%, 53.709412%, 53.709412%)" fill-opacity="1" d="M 727.203125 2308.679688 C 727.203125 2342.5 699.800781 2369.941406 665.976562 2369.980469 C 632.148438 2370.019531 604.683594 2342.640625 604.605469 2308.820312 C 604.53125 2274.988281 631.871094 2247.5 665.695312 2247.378906 C 699.523438 2247.269531 727.046875 2274.570312 727.203125 2308.398438 "/>
<path fill-rule="evenodd" fill="rgb(3.921509%, 29.026794%, 54.881287%)" fill-opacity="1" d="M 3244.230469 2311.5 L 3470 2311.5 L 3470 2070.578125 L 3244.230469 2070.578125 Z M 3244.230469 2311.5 "/>
<path fill-rule="nonzero" fill="rgb(33.325195%, 63.476562%, 94.53125%)" fill-opacity="1" d="M 3265.128906 2125.828125 L 3324.589844 2125.828125 C 3323.589844 2134.371094 3329.878906 2145.578125 3305.03125 2145.378906 L 3264.988281 2145.378906 Z M 3265.128906 2125.828125 "/>
</svg>
