<?xml version="1.0" encoding="utf-8"?>
<!-- Generator: Adobe Illustrator 19.0.0, SVG Export Plug-In . SVG Version: 6.00 Build 0)  -->
<svg xmlns="http://www.w3.org/2000/svg" xmlns:xlink="http://www.w3.org/1999/xlink" version="1.1" id="Layer_1" x="0px" y="0px" viewBox="0 0 1400 980" style="enable-background:new 0 0 1400 980;" xml:space="preserve">
<style type="text/css">
	.st0{fill:#F5FBFF;}
	.st1{fill:#BFD69D;}
	.st2{opacity:0.15;fill:#7A8A33;}
	.st3{fill:#E0DED5;}
	.st4{fill:#A37D69;}
	.st5{fill:#AAD6AD;}
	.st6{opacity:0.2;fill:#7AA691;}
	.st7{fill:#E2E5A3;}
	.st8{opacity:0.1;fill:#70807A;}
	.st9{fill:#ABDBC6;}
	.st10{opacity:0.1;fill:#696E63;}
	.st11{fill:#B7D8A4;}
	.st12{opacity:0.1;}
	.st13{fill:#6E7563;}
	.st14{fill:#D6E2A3;}
	.st15{opacity:0.1;fill:#7A8A33;}
</style>

<g>
	<g>
		<path class="st1" d="M847.6,632.9c-57.8,0-78,34.9-82.3,73c44.1,97.9,107.5,88.3,141.6,73.7c14.3-17.3,23.9-39,23.9-59.5    C930.8,676.4,918.3,632.9,847.6,632.9z"/>
		<path class="st1" d="M765.3,706c-0.6,5.7-0.9,11.5-0.9,17.2c0,32.4,34.1,90.2,83.2,90.2c20.9,0,43.1-14,59.3-33.6    C872.8,794.2,809.4,803.8,765.3,706z"/>
		<path class="st2" d="M765.3,706c-0.6,5.7-0.9,11.5-0.9,17.2c0,32.4,34.1,90.2,83.2,90.2c20.9,0,43.1-14,59.3-33.6    C872.8,794.2,809.4,803.8,765.3,706z"/>
	</g>
	<ellipse class="st3" cx="844.5" cy="935.4" rx="55.5" ry="15.9"/>
	<path class="st4" d="M827.2,934.9c0,0,16.8,8,33.5,0c0,0-3.1-128.6,0-153.5c0,0,10.5-27.9,22-36.9c0,0-11.5,0-24.6,24.4   c0,0-13.1,6.5-11-51.3c0,0-9.4,26.9-4.2,46.8c0,0-10.5-12-41.9-15.9c0,0,35.1,13,36.1,29.9C838.2,795.4,827.2,934.9,827.2,934.9z"/>
</g>
<g>
	<g>
		<path class="st5" d="M553.2,637.2c-3.9-85.6-21.2-105.3-41.1-105.3c-34.4,0-82.7,20.9-82.7,143.6c0,41.3,8.4,78.3,21.7,103.3    C478.7,788,532.9,785.5,553.2,637.2z"/>
		<path class="st5" d="M451.1,778.8c10.9,20.5,25.1,32.9,40.6,32.9c34.4,0,62.3-61,62.3-136.2c0-14-0.3-26.8-0.8-38.3    C532.9,785.5,478.7,788,451.1,778.8z"/>
		<path class="st6" d="M451.1,778.8c10.9,20.5,25.1,32.9,40.6,32.9c34.4,0,62.3-61,62.3-136.2c0-14-0.3-26.8-0.8-38.3    C532.9,785.5,478.7,788,451.1,778.8z"/>
	</g>
	<ellipse class="st3" cx="497" cy="939.4" rx="55.5" ry="15.9"/>
	<path class="st4" d="M512.7,938.9c0,0-16.8,8-33.5,0c0,0,3.1-128.6,0-153.5c0,0-5-38.7-7.3-51.8c0,0,7.3,7,13.1,39.4   c0,0,9.9-11,3.9-68.3c0,0,12,34.4,11.3,63.8c0,0,4.7-17.4,29.8-49.8c0,0-23,46.8-24.1,63.8C504.8,799.4,512.7,938.9,512.7,938.9z"/>
</g>
<g>
	<ellipse class="st3" cx="176.2" cy="939.4" rx="55.5" ry="15.9"/>
	<g>
		<path class="st7" d="M261.6,703.6c-1.6-2.5-3.8-4.5-6.6-5.8c2.3-2.8,3.7-6.4,3.7-10.2c0-7.6-5.4-14.1-12.7-16.1    c0.7-4.3-0.5-9.5-3.9-14.1c-4.9-6.6-12.6-9.8-18.6-8c-0.7-2.4-1.8-4.7-3.4-6.9c-5.7-7.8-15.3-10.8-21.4-6.7    c-0.7,0.5-1.4,1.1-2,1.7c-3-5.1-8.8-8.6-15.4-8.6c-3,0-5.9,0.7-8.4,2c-2.5-1.3-5.3-2-8.4-2c-6,0-11.3,2.9-14.5,7.3    c-1,0.3-1.9,0.5-2.9,0.8c-0.5-0.4-0.9-0.9-1.5-1.2c-6.1-4.1-15.7-1.1-21.4,6.7c-2,2.6-3.2,5.5-3.8,8.3c-0.5,0.4-1,0.8-1.5,1.2    c-5.8-0.2-12.7,2.9-16.8,8.5c-3.4,4.6-4.1,9.8-2.9,14.2c0,0,0,0,0,0.1c-7,2.2-12.1,8.5-12.1,15.9c0,3,0.8,5.7,2.2,8.2    c-0.3,1.1-0.5,2.2-0.7,3.3c-4.1,2.8-6.7,7.3-6.7,12.4c0,4.4,2,8.4,5.1,11.2c0.1,1.7,0.3,3.4,0.5,5c-1.2,2.6-1.9,5.6-1.9,8.8    c0,7.4,3.6,13.6,8.8,16.1c0.6,1.3,1.2,2.6,1.8,3.8c-0.7,1.8-1.1,3.8-1.1,5.9c0,9.1,7.6,16.5,17.1,16.8c-0.1,1.4,0,2.8,0.3,4.2    C149.2,793.7,229.9,797.9,261.6,703.6z"/>
		<path class="st7" d="M263.9,711.6c0-2.9-0.9-5.6-2.3-7.9c-31.7,94.2-112.4,90.1-149.1,82.7c0.6,2.9,2,6,4.1,8.7    c5.8,7.4,15.1,10.1,21.1,6.4c2.1,6.2,8.2,10.6,15.3,10.6c5.2,0,9.8-2.3,12.7-6c1.6,0.1,3.1,0.1,4.7,0.1c4,0,8-0.3,11.8-0.9    c2.8,2.3,6.5,3.7,10.5,3.7c7.2,0,13.2-4.5,15.3-10.6c6,3.8,15.3,1,21.1-6.4c3.2-4.1,4.7-8.8,4.5-13c9.5-0.3,17.1-7.7,17.1-16.8    c0-3.2-1-6.2-2.6-8.7c6.7-0.9,12-8.2,12-17.1c0-4.7-1.5-9-3.9-12.1C260.9,721.8,263.9,717,263.9,711.6z"/>
		<path class="st8" d="M263.9,711.6c0-2.9-0.9-5.6-2.3-7.9c-31.7,94.2-112.4,90.1-149.1,82.7c0.6,2.9,2,6,4.1,8.7    c5.8,7.4,15.1,10.1,21.1,6.4c2.1,6.2,8.2,10.6,15.3,10.6c5.2,0,9.8-2.3,12.7-6c1.6,0.1,3.1,0.1,4.7,0.1c4,0,8-0.3,11.8-0.9    c2.8,2.3,6.5,3.7,10.5,3.7c7.2,0,13.2-4.5,15.3-10.6c6,3.8,15.3,1,21.1-6.4c3.2-4.1,4.7-8.8,4.5-13c9.5-0.3,17.1-7.7,17.1-16.8    c0-3.2-1-6.2-2.6-8.7c6.7-0.9,12-8.2,12-17.1c0-4.7-1.5-9-3.9-12.1C260.9,721.8,263.9,717,263.9,711.6z"/>
	</g>
	<path class="st4" d="M194.6,938.9c0,0-16.8,8-33.5,0c0,0,3.1-128.6,0-153.5c0,0-3.4-11.5-22-22.7c0,0,8.5-4.1,24.6,10.2   c0,0,6.7,7.6,10.9-28.1c0,0,5.6,9.7,4.2,23.6c0,0,2.6-7.5,34-11.5c0,0-27.2,8.5-28.3,25.4C183.6,799.4,194.6,938.9,194.6,938.9z"/>
</g>
<g>
	<path class="st3" d="M1264.8,935.4c0,8.8-24.8,15.9-55.5,15.9c-30.6,0-55.5-7.1-55.5-15.9c0-8.8,24.8-15.9,55.5-15.9   C1239.9,919.4,1264.8,926.6,1264.8,935.4z"/>
	<path class="st4" d="M1192,933.4c0,0,16.8,8,33.5,0c0,0-3.1-128.6,0-153.5c0,0,10.5-27.9,22-36.9c0,0-11.5,0-24.6,24.4   c0,0-13.1,6.5-11-51.3c0,0-9.4,26.9-4.2,46.8c0,0-10.5-12-41.9-15.9c0,0,35.1,13,36.1,29.9C1203,793.9,1192,933.4,1192,933.4z"/>
	<g>
		<path class="st9" d="M1251.7,706.6l-14.2-35.2l13.6-1.5l-44.5-120.1L1159,674.3l14.1,1l-35.6,95.2l16.2,5l-39.9,103.2    C1153.9,881.6,1271.5,876.3,1251.7,706.6z"/>
		<path class="st9" d="M1259.5,768.5l14.7-6l-22.5-55.9c19.8,169.8-97.9,175.1-137.8,172.1l-2.5,6.4c90,11,190.6,0,190.6,0    L1259.5,768.5z"/>
		<path class="st10" d="M1259.5,768.5l14.7-6l-22.5-55.9c19.8,169.8-97.9,175.1-137.8,172.1l-2.5,6.4c90,11,190.6,0,190.6,0    L1259.5,768.5z"/>
	</g>
</g>
<g>
	<g>
		<ellipse class="st3" cx="825.6" cy="451.1" rx="55.5" ry="15.9"/>
		<g>
			<g>
				<path class="st11" d="M820.4,267.7c0,0,103.9,10.1,95-81.3c-0.1-0.1-0.1-0.1-0.2-0.2c-15.2-13.2-39.1-8-39.1-8      s-2-31.1-26.4-44.5c-13.5-7.5-28.2-10.4-50.8-4.7c-31.5,8.1-42.2,30.6-42.4,52c-0.1,14.1,0.5,31.9,17.3,42.6      c-20.9,1.2-54.4,15.7-51.4,51.3c0.4,4.7,1.4,9.1,2.9,13.1C745,292.9,794,300.6,820.4,267.7z"/>
			</g>
			<g>
				<path class="st11" d="M915.3,186.5c8.9,91.3-95,81.3-95,81.3c-26.4,32.9-75.4,25.1-95.1,20.3c6.6,18.2,23.1,29.5,40.6,29.3      c51.5-0.4,63.7-34.7,63.7-34.7s30.6,9.7,47.1,6.7c21.2-4.5,41.6-17.9,51.8-35.9C939.4,234.2,932.8,201.9,915.3,186.5z"/>
			</g>
			<g class="st12">
				<path class="st13" d="M915.3,186.5c8.9,91.3-95,81.3-95,81.3c-26.4,32.9-75.4,25.1-95.1,20.3c6.6,18.2,23.1,29.5,40.6,29.3      c51.5-0.4,63.7-34.7,63.7-34.7s30.6,9.7,47.1,6.7c21.2-4.5,41.6-17.9,51.8-35.9C939.4,234.2,932.8,201.9,915.3,186.5z"/>
			</g>
		</g>
	</g>
	<path class="st4" d="M813.7,453.4c0,0,13.3,4.1,24.3-0.4V281.2c0,0,2.4-22,23.3-46.3c0,0-23.5,20.2-25.9,29.1l-7.8-72.5   c0,0,0,60.2-4.3,72.5c0,0-9.4,1.9-24.3-12.3c0,0,15.7,21.7,23.1,25L813.7,453.4z"/>
</g>
<g>
	<ellipse class="st3" cx="489.1" cy="456.6" rx="55.5" ry="15.9"/>
	<g>
		<path class="st14" d="M522.1,291.2c0,0,22.5-55.5,21.3-119c-9.6-48.4-31-90.3-55.9-90.3c-33.8,0-61.3,77.4-61.3,143.4    c0,11.1,0.8,21.1,2.2,30.2c-6.3,8.4-9.6,18.4-9.6,29.2c0,3.6,0.4,7,1.1,10.4C446.2,314.5,493.7,339,522.1,291.2z"/>
		<path class="st14" d="M546.4,256.4c1.5-9.3,2.4-19.6,2.4-31c0-17.5-1.9-35.7-5.4-53.2c1.2,63.5-21.3,119-21.3,119    c-28.4,47.9-75.9,23.3-102.1,4c5.1,24.5,28.6,43,67.5,43c44.2,0,67.5-23.9,67.5-53.4C555.1,274.3,552.1,264.6,546.4,256.4z"/>
		<path class="st15" d="M546.4,256.4c1.5-9.3,2.4-19.6,2.4-31c0-17.5-1.9-35.7-5.4-53.2c1.2,63.5-21.3,119-21.3,119    c-28.4,47.9-75.9,23.3-102.1,4c5.1,24.5,28.6,43,67.5,43c44.2,0,67.5-23.9,67.5-53.4C555.1,274.3,552.1,264.6,546.4,256.4z"/>
	</g>
	<path class="st4" d="M500.9,458.9c0,0-13.4,4.1-24.3-0.4l4.7-158.4c0,0-2.4-22-23.2-46.3c0,0,23.6,20.2,25.9,29.1l7.9-72.5   c0,0,0,60.2,4.3,72.5c0,0,9.4,1.9,24.3-12.3c0,0-15.7,21.7-23.2,25L500.9,458.9z"/>
</g>
<g>
	<g>
		<path class="st1" d="M1178.9,227.9c0,0,108.8,16.5,144.6-30.1c-7.9-15.9-38.5-22-74.9-22c-4.6,0-9.2,0.4-13.8,1    c0.3-1.9,0.4-3.9,0.4-5.9c0-27.9-19.2-59.4-52.6-59.4s-68.3,31.6-68.3,59.4c0,10.5,3.8,20.2,10.4,28.2    c-18.9,2.5-33.3,10.2-35.9,21.6C1105.4,228.3,1149.7,245.4,1178.9,227.9z"/>
		<path class="st1" d="M1178.9,227.9c-29.3,17.5-73.5,0.5-90.2-7.1c-0.3,1.2-0.4,2.4-0.4,3.7c0,16.1,19.9,32.1,61,32.1    c17.5,0,28.4-5.2,34.1-13.2c16.3,4.7,40.7,5.6,65.1,5.6c42.5,0,77-14.2,77-42.6c0-3.2-0.7-6.1-2-8.7    C1287.7,244.4,1178.9,227.9,1178.9,227.9z"/>
		<path class="st15" d="M1178.9,227.9c-29.3,17.5-73.5,0.5-90.2-7.1c-0.3,1.2-0.4,2.4-0.4,3.7c0,16.1,19.9,32.1,61,32.1    c17.5,0,28.4-5.2,34.1-13.2c16.3,4.7,40.7,5.6,65.1,5.6c42.5,0,77-14.2,77-42.6c0-3.2-0.7-6.1-2-8.7    C1287.7,244.4,1178.9,227.9,1178.9,227.9z"/>
	</g>
	<g>
		<ellipse class="st3" cx="1184.1" cy="452.6" rx="55.5" ry="15.9"/>
		<path class="st4" d="M1195.9,454.9c0,0-13.4,4.1-24.3-0.4l4.7-158.4c0,0-25.9-43.3-29.1-66.5c0,0,15.7,33.6,31.8,49.3l7.9-72.5    c0,0,0,60.2,4.3,72.5c0,0,23.1-32.7,33.8-61.4c0,0-11,46.5-32.6,74.1L1195.9,454.9z"/>
	</g>
</g>
<g>
	<g>
		<g>
			<path class="st11" d="M226.1,207.9c-2.7-38.1-8.4-77-21.1-112.3c-6.8-19-14.2-49.3-32.8-61.3c-9.3-6-23.2-3.9-30.6,4.5     c-8.2,9.2-16,28.9-19.2,39.8c-5.9,20.3-10.6,40.9-14.5,61.5c-7.4,40.1-12.8,81.4-15.1,122c-0.3,4.4,0,8.5,0.6,12.2     C124.5,288.2,211.7,316.5,226.1,207.9z"/>
		</g>
		<g>
			<path class="st11" d="M227.5,234.3c-0.3-8.7-0.8-17.6-1.4-26.4c-14.4,108.6-101.6,80.3-132.6,66.5c2.9,18.1,15.7,28.2,38.7,32.2     c23.2,4,51.8,6.9,73.3-4.2c20.1-10.4,23.1-31.8,22.6-50.6C227.9,246,227.7,240.2,227.5,234.3z"/>
		</g>
		<g class="st12">
			<path class="st13" d="M227.5,234.3c-0.3-8.7-0.8-17.6-1.4-26.4c-14.4,108.6-101.6,80.3-132.6,66.5c2.9,18.1,15.7,28.2,38.7,32.2     c23.2,4,51.8,6.9,73.3-4.2c20.1-10.4,23.1-31.8,22.6-50.6C227.9,246,227.7,240.2,227.5,234.3z"/>
		</g>
	</g>
	<g>
		<ellipse class="st3" cx="149.5" cy="457.5" rx="55.5" ry="15"/>
		<path class="st4" d="M138.5,457c0,0,16.8,7.5,33.5,0c0,0-3.1-121,0-144.4c0,0,6.5-24.1,18.3-48.8c0,0-11.6,9-24.1,37    c0,0-3.8-31.9,2.4-64.2c0,0-18.3,32.4-17.5,60c0,0-4.7-16.4-29.8-46.9c0,0,23,44.1,24.1,60C146.4,325.8,138.5,457,138.5,457z"/>
	</g>
</g>
</svg>
