<?xml version="1.0" encoding="UTF-8"?>
<svg xmlns="http://www.w3.org/2000/svg" xmlns:xlink="http://www.w3.org/1999/xlink" width="4875" height="2250" viewBox="0 0 4875 2250">

<path fill-rule="nonzero" fill="rgb(44.309998%, 78.514099%, 21.556091%)" fill-opacity="1" d="M 95.109375 884.429688 C 158.820312 760.101562 183.472656 362.199219 125.421875 238.078125 C 188.058594 326.160156 203.054688 426.078125 210.460938 535.878906 C 259.117188 405.039062 299.222656 280.289062 392.351562 183.738281 C 317.433594 315.359375 319.8125 365.578125 301.40625 463.519531 C 375.171875 336.960938 409.632812 189.890625 544.632812 130.679688 C 468.140625 260.640625 464.492188 417.890625 510.792969 555.179688 C 587.246094 460.078125 609.25 323.628906 609.25 213.710938 C 639.472656 274.460938 651.550781 339.039062 651.550781 409.070312 C 683.726562 349.570312 669.554688 267.328125 647.320312 206.46875 C 707.613281 272.660156 753.714844 330.75 769.988281 423.539062 C 778.941406 343.160156 811.175781 267.808594 784.796875 189.589844 C 849.292969 286.519531 865.164062 414.890625 865.164062 536.898438 C 868.902344 435.601562 922.5 347.589844 998.410156 298.121094 C 958.535156 344.070312 952.753906 395.550781 945.535156 457.308594 C 975.5625 355.019531 1060.851562 298.570312 1144.339844 261.949219 C 1099.859375 288.070312 1074.398438 342.691406 1059.738281 397.011719 C 1109.261719 285.769531 1224.550781 242.679688 1307.199219 228.179688 C 1248.101562 259.871094 1203.371094 327.941406 1188.761719 394.601562 C 1257.820312 266.898438 1382.578125 217.640625 1501.78125 201.648438 C 1442.148438 224.570312 1400.429688 266.53125 1362.191406 319.828125 C 1418.050781 280.578125 1478.859375 281.238281 1548.308594 281.238281 C 1477.78125 313.878906 1446.050781 381.070312 1423.53125 464.550781 C 1498.769531 443.441406 1590.988281 408.578125 1643.679688 346.128906 C 1637.230469 380.191406 1616.789062 417.789062 1599.269531 437.78125 C 1692.921875 395.261719 1740.671875 303.019531 1751.550781 203.828125 C 1760.5 253.199219 1774.808594 293.761719 1774.808594 346.128906 C 1805.949219 279.21875 1818.539062 202.289062 1800.191406 129.058594 C 1876.980469 216.640625 1897.480469 324.121094 1897.480469 445.019531 C 1928.679688 411.980469 1940.050781 361.320312 1945.410156 315.429688 C 1981.171875 390.609375 2024.828125 470.378906 2030.011719 559.03125 C 2079.988281 486.269531 2108.53125 392.871094 2102.980469 304.398438 C 2132.710938 373.070312 2137.589844 444.949219 2132.589844 519.058594 C 2133.761719 434.851562 2160.300781 336.058594 2232 301.988281 C 2171.039062 394.269531 2210.730469 492.261719 2246.800781 574.53125 C 2340.910156 394.769531 2343.808594 209.53125 2534.449219 125.921875 C 2433.609375 221.101562 2382.160156 347.789062 2382.160156 504.589844 C 2410.328125 365.140625 2522.191406 317.320312 2630.289062 276.21875 C 2559.988281 326.378906 2482.238281 369.78125 2482.238281 474 C 2536.46875 418.109375 2628.488281 402.289062 2698.789062 379.390625 C 2648.648438 398.550781 2624.761719 463 2624.761719 524.101562 C 2702.351562 499.558594 2782.929688 464.050781 2808.769531 369.738281 C 2804.71875 411.171875 2806.648438 453.398438 2806.648438 495.160156 C 2852.121094 460.320312 2872.511719 404.929688 2889.140625 348.03125 C 2903.339844 434.988281 2883.890625 509.039062 2859.53125 586.808594 C 2929.160156 535.648438 3002.339844 500.25 3016.039062 398.679688 C 3026.019531 462 3015.308594 514.039062 2986.429688 550.628906 C 3028.390625 497.289062 3075.210938 472.890625 3136.589844 478.28125 C 3094.160156 487.949219 3071.929688 508.039062 3054.109375 555.460938 C 3109.980469 492.898438 3204.738281 472.441406 3270.609375 460.878906 C 3229.878906 467.628906 3202.128906 497.789062 3171.210938 526 C 3254.820312 468.878906 3352.160156 451.480469 3444.039062 444 C 3388.78125 456.53125 3351.230469 481.769531 3317.140625 528.410156 C 3452.628906 518.089844 3565.628906 431.988281 3617.699219 313.238281 C 3601.660156 380.539062 3560.910156 435.75 3526.75 489.308594 C 3625.910156 408.121094 3685.378906 311.28125 3685.378906 168.519531 C 3695.640625 274.691406 3688.429688 368.589844 3645.191406 453.128906 C 3745.519531 370.171875 3795.78125 267.289062 3804.820312 133.300781 C 3828.121094 269.839844 3795.710938 402.398438 3764.640625 526.441406 C 3808.621094 460.308594 3857.578125 386.371094 3862.941406 300.738281 C 3867.171875 358.210938 3865.050781 416.589844 3865.050781 474.398438 C 3906.011719 404.890625 3943.71875 341.191406 3932.730469 259.738281 C 3952.140625 363.46875 3967.359375 477.230469 3907.351562 568.460938 C 3974.578125 451.148438 4083.578125 382.300781 4176.691406 297.359375 C 4123.730469 374.449219 4043.871094 439.191406 4020.179688 533.71875 C 4062.710938 444.640625 4150.191406 374.828125 4233.800781 352.828125 C 4158.558594 378.328125 4106.070312 448.019531 4100.550781 536.140625 C 4175.769531 430.539062 4295.839844 355.78125 4409.820312 337.210938 C 4356.359375 355.550781 4303.539062 421.429688 4282.921875 455.390625 C 4357.269531 371.628906 4453.621094 351.660156 4545.179688 327.558594 C 4464.058594 371.929688 4412.148438 494.121094 4390.78125 559.109375 C 4427.371094 494.148438 4472.371094 468.511719 4530.371094 448.160156 C 4482.761719 488.808594 4465.28125 547.109375 4452.121094 612.171875 C 4493.019531 524.601562 4571.21875 472.128906 4655.160156 452.980469 C 4608.671875 478.390625 4588.21875 525.210938 4572.671875 578.398438 C 4626.078125 498.449219 4721.371094 448.640625 4796.859375 424.039062 C 4734.929688 508.550781 4631.78125 623.910156 4705.769531 888.011719 C 3010.558594 877.121094 1591.070312 886.171875 95.109375 884.429688 "/>
<path fill-rule="nonzero" fill="rgb(33.325195%, 83.201599%, 0%)" fill-opacity="1" d="M 528.625 1131.601562 C 595.847656 1274.992188 578.757812 1514.414062 537.746094 1676.410156 C 537.746094 1557.355469 532.207031 1455.789062 492.136719 1351.039062 C 509.023438 1442.085938 511.367188 1541.242188 461.730469 1615.875 C 461.730469 1536.195312 451.078125 1466.3125 443.484375 1388.871094 C 443.484375 1473.257812 430.402344 1556.511719 388.753906 1623.441406 C 382.9375 1522.179688 385.464844 1402.496094 413.078125 1301.855469 C 373.894531 1406.328125 333.160156 1504.351562 340.101562 1631.007812 C 315.523438 1539.269531 267.609375 1446.675781 191.105469 1407.789062 C 223.460938 1468.175781 242.957031 1538.160156 236.71875 1615.875 C 207.371094 1506.335938 154.496094 1414.835938 57.316406 1362.390625 C 98.203125 1438.699219 136.597656 1520.867188 124.210938 1627.226562 C 97.382812 1541.382812 64.019531 1442.382812 11.738281 1361.8125 L 11.738281 1419.558594 C 37.289062 1478.265625 53.3125 1543.386719 42.113281 1608.308594 C 34.023438 1582.140625 23.742188 1557.527344 11.738281 1534.492188 L 11.738281 2173 C 928.773438 2177.058594 3652.648438 2172.925781 4861.78125 2168.515625 L 4861.78125 1555.335938 C 4846.609375 1578.523438 4834.71875 1604.980469 4828.171875 1634.789062 C 4828.171875 1583.460938 4841.191406 1540.386719 4861.78125 1502.09375 L 4861.78125 1436.277344 C 4777.628906 1463.03125 4704.238281 1505.128906 4648.769531 1612.089844 C 4660.988281 1557.339844 4700.429688 1442.429688 4761.28125 1404.007812 C 4672.78125 1427.601562 4559.761719 1482.460938 4524.101562 1593.175781 C 4532.179688 1517.761719 4556.53125 1454.089844 4603.160156 1392.65625 C 4507.910156 1426.519531 4430.460938 1561.511719 4435.921875 1691.542969 C 4374.460938 1607.425781 4338.378906 1466.433594 4362.941406 1347.257812 C 4336.261719 1413.648438 4327.21875 1506.226562 4329.5 1593.175781 C 4309.109375 1510.757812 4248.410156 1440.605469 4226.109375 1354.824219 C 4226.109375 1425.113281 4225.03125 1491.652344 4210.910156 1559.125 C 4192.089844 1465.453125 4172.230469 1363.59375 4113.609375 1294.289062 C 4128.191406 1348.714844 4133.199219 1411.964844 4113.609375 1468.324219 C 4103.980469 1378.449219 4063.859375 1306.304688 4034.550781 1226.191406 C 4043.410156 1369.59375 4076.148438 1503.125 4001.101562 1634.789062 C 3995.929688 1544.683594 4000.730469 1440.121094 3967.648438 1351.039062 C 3967.648438 1434.914062 3955.429688 1495.953125 3909.878906 1559.125 C 3922.160156 1523.484375 3937.949219 1478.804688 3934.199219 1430.492188 C 3906.148438 1482.855469 3847.699219 1539.601562 3800.421875 1589.390625 C 3817.210938 1547.59375 3832.910156 1508.300781 3867.308594 1479.675781 C 3782.941406 1520.050781 3704.390625 1588.953125 3627.089844 1657.492188 C 3656.398438 1538.992188 3698.519531 1418.507812 3797.371094 1362.390625 C 3685.210938 1383.859375 3561.53125 1444.628906 3478.101562 1543.992188 C 3515.609375 1485.652344 3554.660156 1417.171875 3617.96875 1381.308594 C 3507.378906 1430.449219 3394.710938 1513.832031 3344.308594 1653.710938 C 3368.621094 1555.414062 3403.890625 1472.398438 3478.101562 1411.570312 C 3391.738281 1447.390625 3321.050781 1521.722656 3262.210938 1604.527344 C 3286.289062 1492.191406 3303.410156 1370.816406 3292.621094 1248.890625 C 3292.621094 1418.765625 3223.941406 1538.796875 3134.5 1665.058594 C 3188.710938 1580.757812 3176.519531 1470.351562 3198.359375 1362.390625 C 3163.699219 1455.824219 3152.5 1551.933594 3040.238281 1574.257812 C 3073.660156 1528.058594 3106.421875 1456.308594 3116.261719 1381.308594 C 3075.621094 1512.777344 2958.789062 1546.347656 2860.839844 1615.875 C 2892.230469 1557.285156 2931.859375 1501.707031 2985.511719 1460.757812 C 2907.429688 1501.234375 2781.75 1544.511719 2754.410156 1653.710938 C 2763.480469 1580.367188 2798.429688 1515.628906 2839.550781 1460.757812 C 2760.859375 1521.015625 2697.710938 1608.734375 2657.109375 1706.675781 C 2657.109375 1574.207031 2683.351562 1446.203125 2754.410156 1343.472656 C 2677.820312 1394.785156 2616.140625 1463.339844 2584.140625 1566.691406 C 2584.140625 1428.921875 2636.621094 1321.851562 2708.800781 1222.410156 C 2601.25 1300.46875 2522.011719 1415.859375 2453.390625 1551.558594 C 2488.699219 1463.683594 2509.660156 1349.988281 2541.570312 1248.890625 C 2477.160156 1397.71875 2400.5 1531.910156 2310.46875 1661.273438 C 2243.101562 1546.007812 2263.378906 1450.507812 2368.25 1381.308594 C 2276.351562 1405.808594 2187.140625 1436.515625 2177.371094 1560.097656 C 2180.71875 1461.511719 2197.648438 1374.746094 2246.621094 1290.503906 C 2165.699219 1401.261719 2118.910156 1585.277344 2048.96875 1672.625 C 2088.140625 1611.710938 2074.449219 1519.070312 2082.421875 1441.839844 C 2063.089844 1514.003906 2016.449219 1570.34375 1979.039062 1631.007812 C 1984.648438 1617.039062 2031.078125 1439.914062 2048.96875 1366.171875 C 2005.191406 1459.570312 1950.480469 1540.917969 1875.648438 1608.308594 C 1892.261719 1569.925781 1915.570312 1515.789062 1933.429688 1468.324219 C 1862.648438 1585.734375 1714.460938 1580.410156 1644.558594 1691.542969 C 1662.078125 1597.0625 1689.921875 1560.589844 1775.308594 1543.992188 C 1709.53125 1543.992188 1653.679688 1546.945312 1601.988281 1604.527344 C 1622.808594 1556.414062 1646.378906 1520.34375 1696.25 1498.589844 C 1609.550781 1512.074219 1501.070312 1490.773438 1428.671875 1574.257812 C 1457.769531 1517.355469 1505.910156 1465.246094 1565.5 1438.054688 C 1452.570312 1459.675781 1354.710938 1540.578125 1285.761719 1649.925781 C 1304.121094 1614.378906 1316.679688 1549.046875 1343.269531 1504.394531 C 1297.878906 1559.753906 1204.878906 1642.355469 1118.519531 1661.273438 C 1124.269531 1568.230469 1167.429688 1548.433594 1240.148438 1521.289062 C 1168.738281 1527.214844 1092.730469 1509.066406 1051.621094 1608.308594 C 1075.449219 1549.023438 1109.871094 1467.019531 1182.371094 1441.839844 C 1070.410156 1459.253906 967.574219 1546.300781 908.710938 1657.492188 C 875.605469 1592.761719 874.660156 1464.378906 936.078125 1400.222656 C 891.492188 1421.558594 848.007812 1438.910156 844.855469 1513.722656 C 844.855469 1472.316406 852.480469 1351.320312 917.835938 1313.203125 C 821.503906 1364.574219 718.378906 1450.449219 720.1875 1608.308594 C 707.882812 1493.488281 665.839844 1388.621094 610.722656 1294.289062 C 624.386719 1373.617188 632.246094 1435.964844 610.722656 1513.722656 C 610.722656 1372.738281 586.765625 1254.421875 528.625 1131.601562 Z M 1343.269531 1504.394531 C 1350.699219 1495.34375 1357.160156 1486.859375 1361.78125 1479.675781 C 1354.871094 1486.699219 1348.789062 1495.136719 1343.269531 1504.394531 "/>
</svg>
